<?xml version="1.0" standalone="yes"?>
<svg xmlns="http://www.w3.org/2000/svg" width="738" height="339">
<path style="fill:#3e175d; stroke:none;" d="M0 0L0 339L738 339L738 0L0 0z"/>
<path style="fill:#7b3b83; stroke:none;" d="M409 6L410 7L409 6z"/>
<path style="fill:#d6cfcc; stroke:none;" d="M413 6.42438C390.645 9.35962 369.99 12.4442 349 21.4275C339.373 25.5476 324.436 38.8447 314 38.277C304.695 37.7708 298.01 23.3007 290 18.9043C272.858 9.49588 247.159 9.6875 229 15.6705C208.948 22.2772 197.487 38.4281 187.283 56C181.862 65.3353 174.47 81.6622 162 82.4977C142.63 83.7956 131.662 48.6563 122.572 36C102.788 8.4548 52.3836 2.22168 25.0903 23.0432C-5.11798 46.0885 24.8345 89.2324 38.811 112C56.8536 141.391 77.0888 169.442 91.3056 201C97.5114 214.776 104.421 233.631 101.671 249C98.9908 263.975 82.5936 274.518 76.3241 288C69.6172 302.423 74.5398 320.507 91 325.211C101.435 328.194 113.278 327 124 327C151.715 327 198.403 335.709 213.215 305C225.01 280.543 213.183 252.931 219.927 228C222.444 218.699 232.166 205.288 243 205.63C260.701 206.189 266.697 238.777 273.309 251C290.015 281.886 315.786 304.837 348 318.573C395.13 338.668 457.311 337.344 503 313.892C516.089 307.173 528.322 299.154 539 288.961C544.039 284.15 551.374 274.824 559 274.554C571.552 274.109 578.442 299.99 585.3 308C601.218 326.593 626.124 334.225 650 330.245C687.312 324.027 707.585 289.723 704.911 254C704.07 242.757 697.007 232.981 696.093 222C694.451 202.275 696 181.8 696 162C696 139.769 694.553 117.002 695.935 94.8302C697.457 70.4058 743.226 47.595 718.812 21.0432C709.272 10.6676 693.706 13 681 13L604 13C592.017 13 577.333 10.6858 566 15.0687C552.731 20.2001 551.418 44.9801 537.424 45.064C532.068 45.0961 527.154 40.8854 523 38.0239C514.567 32.2141 506.175 26.8346 497 22.2469C472.405 9.94958 440.543 2.80798 413 6.42438z"/>
<path style="fill:#7b3b83; stroke:none;" d="M352 29L352 30L355 30L352 29M347 30L348 31L347 30z"/>
<path style="fill:#3e175d; stroke:none;" d="M544 103L546 103C549.24 114.248 555.24 124.509 558.265 136C564.945 161.368 564.237 188.949 556.565 214C532.768 291.7 443.587 320.913 371 299.279C354.924 294.488 342.037 285.74 328 277C343.908 297.786 376.325 306.878 401 310.421C466.97 319.893 538.897 291.163 561.484 224C567.428 206.324 568.846 188.395 568.039 170C567.307 153.305 564.072 137.543 557.799 122C554.923 114.872 548.403 107.38 546.883 100C544.305 87.477 557.438 73.7003 539 66.6636C509.599 55.4424 495.314 101.798 482 118C476.992 102.317 452.099 96.4286 444 113L442 113C432.285 87.9224 409.132 101.01 396 113C394.278 100.22 389.269 87.3874 385.709 75C382.181 62.7216 379.51 49.1465 371.181 39.0401C356.66 21.4227 336.194 32.196 332.616 52C327.495 80.3394 340.561 112.881 347.735 140C350.11 148.98 356.467 162.651 355.382 171.907C354.753 177.272 344.652 182.105 341.184 186.004C331.879 196.468 328.816 210.541 332.49 224C349.375 285.861 443.433 295.544 485.999 255.91C501.322 241.642 510.05 219.8 510.961 199C511.377 189.499 508.455 177.065 510.789 168C512.396 161.758 517.799 155.569 521 150C529.384 135.413 540.075 119.526 544 103z"/>
<path style="fill:#7b3b83; stroke:none;" d="M359 30L360 31L359 30M361 31L362 32L361 31M343 32L344 33L343 32M363 32L364 33L363 32z"/>
<path style="fill:#d92d4a; stroke:none;" d="M396 112C400.573 109.559 403.459 105.002 408 102.363C421.978 94.2423 433.102 100.004 442 112C450.63 108.053 456.512 100.962 467 103.709C471.878 104.987 479.784 115.908 483.826 114.654C488.067 113.339 491.056 103.578 493.142 100C499.635 88.8638 507.33 77.516 518 70C513.268 60.9043 502.562 54.9375 494 49.8002C469.129 34.8782 437.813 28.8748 409 32.2855C400.323 33.3127 391.426 34.3272 383 36.7099C380.629 37.3803 375.58 37.925 374.454 40.5131C372.803 44.3067 379.71 54.9365 380.975 59C386.389 76.4059 391.927 94.2329 396 112z"/>
<path style="fill:#7b3b83; stroke:none;" d="M365 33L366 34L365 33M366 34L367 35L366 34M350.667 36.3333L351.333 36.6667L350.667 36.3333z"/>
<path style="fill:#d6cfcc; stroke:none;" d="M343 93C355.825 88.9416 365.952 82.0387 380 82C378.336 69.6516 374.241 53.9475 366.471 44.0038C362.124 38.4416 355.093 34.2272 348.09 37.7693C331.043 46.3919 339.106 79.1498 343 93z"/>
<path style="fill:#7b3b83; stroke:none;" d="M355.667 36.3333L356.333 36.6667L355.667 36.3333z"/>
<path style="fill:#d92d4a; stroke:none;" d="M100 300C119.032 305.771 146.044 301 166 301C173.516 301 183.075 302.277 188.501 295.811C193.901 289.375 193 278.821 193 271C193 254.027 192.163 236.867 194.17 220C197.493 192.066 216.527 167.455 230.6 144C245.302 119.496 260.241 94.9686 274.138 70C277.944 63.1626 286.15 49.1984 278.772 42.419C272.292 36.4653 258.115 36.7471 250 37.7145C214.974 41.8899 204.398 81.188 186.279 107C180.837 114.753 170.072 132.044 158.715 129.898C149.667 128.189 143.243 118.742 138.015 112C126.469 97.1113 117.932 79.3139 108.579 63C103.541 54.2122 98.9999 44.0283 89 39.9799C78.0229 35.536 42.5419 32.9724 38.4336 48.0008C35.3645 59.2279 46.1254 73.8697 51.4244 83C67.5658 110.812 86.5332 136.848 102.139 165C114.307 186.951 123.655 208.999 127.13 234C128.163 241.425 130.731 252.794 128.297 260C123.153 275.231 105.795 284.936 100 300z"/>
<path style="fill:#7b3b83; stroke:none;" d="M338 37L339 38L338 37M347 37L348 38L347 37M359 37L360 38L359 37M337 38L338 39L337 38M346 38L347 39L346 38M370 38L371 39L370 38z"/>
<path style="fill:#fccb0d; stroke:none;" d="M577 39C582.803 54.0862 601.489 64.4009 605.57 80C607.469 87.2564 606 96.5229 606 104L606 152C606 161.406 603.714 173.633 611.108 180.867C622.324 191.841 656.635 192.201 666.348 178.957C671.894 171.394 670 159.802 670 151L670 87C670.006 73.6424 680.721 64.082 688.576 54C690.926 50.9839 698.029 44.5258 697.118 40.3179C696.511 37.5113 692.077 38.0151 690 38.0008C683.001 37.9525 676 38 669 38L608 38C598.218 38 586.403 36.2206 577 39z"/>
<path style="fill:#7b3b83; stroke:none;" d="M362 39L363 40L362 39M371 39L372 40L371 39M336 40L337 41L336 40M344 40L345 41L344 40M363 40L364 41L363 40M372.667 40.3333L373.333 40.6667L372.667 40.3333M343 41L344 42L343 41M364 41L365 42L364 41M335 42L336 43L335 42M365 42L366 43L365 42M374 43L375 44L374 43M334 44L335 45L334 44M341 44L342 45L341 44M696 44L696 45L706 46L696 44M367 45L368 46L367 45M375 45L376 46L375 45z"/>
<path style="fill:#3e175d; stroke:none;" d="M615 184C625.403 198.001 664.593 199.878 673.558 182.996C677.94 174.744 676 163.022 676 154C676 132.36 673.071 108.402 676.144 87C678.386 71.3863 698.913 59.3809 705 45C701.925 45.0003 698.064 44.4333 695.289 46.0278C687.522 50.4925 671.087 72.1169 670.109 81C667.746 102.45 670 125.409 670 147C670 155.495 672.031 167.11 668.442 174.999C662.687 187.651 645.191 189.777 633 188.285C626.569 187.497 621.074 186.34 615 184z"/>
<path style="fill:#7b3b83; stroke:none;" d="M368 46L369 47L368 46z"/>
<path style="fill:#3e175d; stroke:none;" d="M282 47C280.58 64.3574 267.245 81.4171 258.603 96C245.573 117.989 232.697 140.078 219.551 162C210.528 177.047 200.692 191.759 196.375 209C191.57 228.189 193 248.375 193 268C193 277.061 194.504 288.65 187.775 295.892C182.456 301.618 175.145 301 168 301L127 301C118.661 301 109.835 298.907 105 307L169 307C176.882 307 187.637 308.914 193.775 302.775C200.131 296.42 199 285.199 199 277C199 257.8 197.333 237.842 201.651 219C206.311 198.665 217.809 181.651 228.4 164C241.347 142.421 253.874 120.589 266.8 99C273.532 87.7574 281.185 76.329 285.771 64C288.312 57.1674 289.113 50.9037 282 47z"/>
<path style="fill:#7b3b83; stroke:none;" d="M283 47L284 48L283 47M333 47L334 48L333 47M340 47L341 48L340 47M376 47L377 48L376 47M693 47L694 48L693 47M369 48L370 49L369 48M692 48L693 49L692 48M703 48L704 49L703 48M377 49L378 50L377 49M702 49L703 50L702 49M101 50L103 55L106 55L101 50M339 50L340 51L339 50M370 50L371 51L370 50M287 51L288 52L287 51M332.333 51.6667L332.667 52.3333L332.333 51.6667M378 51L379 52L378 51z"/>
<path style="fill:#3e175d; stroke:none;" d="M102 52L103 53L102 52z"/>
<path style="fill:#7b3b83; stroke:none;" d="M371 52L372 53L371 52M689 52L690 53L689 52z"/>
<path style="fill:#3e175d; stroke:none;" d="M103 53L104 54L103 53z"/>
<path style="fill:#7b3b83; stroke:none;" d="M699 53L700 54L699 53z"/>
<path style="fill:#3e175d; stroke:none;" d="M104 54C106.995 63.4657 113.602 72.4304 118.576 81C125.82 93.482 132.634 109.746 144 119L120.281 79L104 54z"/>
<path style="fill:#7b3b83; stroke:none;" d="M338 54L338 58L339 58L338 54M372 54L373 55L372 54M698 54L699 55L698 54M280 55L281 56L280 55M686 56L687 57L686 56M107 57L108 58L107 57M373 57L374 58L373 57M380 57L381 58L380 57M685 57L686 58L685 57M696 57L697 58L696 57M108 58L109 59L108 58M287 58L288 59L287 58M331 58L331 62L332 62L331 58M695 58L696 59L695 58M106 59L107 60L106 59M109 60L110 61L109 60M278 60L279 61L278 60M374 60L375 61L374 60M381 60L382 61L381 60M683 60L684 61L683 60M107 61L108 62L107 61M682 61L683 62L682 61M693 61L694 62L693 61M286 62L287 63L286 62z"/>
<path style="fill:#d92d4a; stroke:none;" d="M330 62C309.823 77.2067 294.937 96.9779 287.001 121C280.049 142.041 278.485 165.063 280.834 187C284.203 218.471 296.624 248.622 320 270.66C401.328 347.336 562 296.447 562 178C562 152.32 559.212 126.722 546 104L544 104C538.242 118.843 530.468 133.197 522.573 147C518.878 153.459 512.429 160.697 510.738 168C509.129 174.949 512.206 182.951 511.896 190C510.972 210.996 505.782 232.798 491.711 249C455.909 290.223 363.093 292.988 338.04 237C331.042 221.36 327.11 204.822 338.529 190C342.428 184.939 354.639 178.211 355.498 171.96C356.683 163.329 350.241 150.475 348.235 142C343.883 123.615 338.493 105.447 334.424 87C332.674 79.064 333.304 69.3588 330 62z"/>
<path style="fill:#7b3b83; stroke:none;" d="M692 62L693 63L692 62M111 63L112 64L111 63M331 63L331 68L332 68L331 63M375 63L376 64L375 63M285 64L286 65L285 64M680 64L681 65L680 64M112 65L113 66L112 65M527 65L527 66L530 66L527 65M534 65L534 66L537 66L534 65M679 65L680 66L679 65M110 66L111 67L110 66M524 66L525 67L524 66M539 66L540 67L539 66M689 66L690 67L689 66M113 67L114 68L113 67M284 67L285 68L284 67M376 67L377 68L376 67M383 67L384 68L383 67M541 67L542 68L541 67M688 67L689 68L688 67M111 68L112 69L111 68M338 68L338 73L339 73L338 68M517 68L518 69L517 68M520 68L521 69L520 68M542 68L543 69L542 68M283 69L284 70L283 69M676 69L677 70L676 69M115 70L116 71L115 70M377.333 70.6667L377.667 71.3333L377.333 70.6667M384 70L385 71L384 70M516 70L517 71L516 70M545 70L546 71L545 70M675 70L676 71L675 70M686 70L687 71L686 70M282 71L283 72L282 71M515 71L516 72L515 71M531.667 71.3333L532.333 71.6667L531.667 71.3333M546 71L547 72L546 71M685 71L686 72L685 71M116 72L117 73L116 72M526.667 72.3333L527.333 72.6667L526.667 72.3333z"/>
<path style="fill:#d6cfcc; stroke:none;" d="M502 99L532 115C535.793 105.878 546.613 89.2 543.067 79.0154C540.673 72.1389 532.027 70.9218 526 73.1335C515.577 76.9585 506.266 89.1142 502 99z"/>
<path style="fill:#7b3b83; stroke:none;" d="M536 72L537 73L536 72M547 72L548 73L547 72M281 73L282 74L281 73M524 73L525 74L524 73M538 73L539 74L538 73M673 73L674 74L673 73M117 74L118 75L117 74M378 74L379 75L378 74M385 74L386 75L385 74M672 74L673 75L672 74M683 74L684 75L683 74M115 75L116 76L115 75M280 75L281 76L280 75M521 75L522 76L521 75M541 75L542 76L541 75M682 75L683 76L682 75M332 76L333 77L332 76M549.333 76.6667L549.667 77.3333L549.333 76.6667M119 77L120 78L119 77M269 77L270 78L269 77M339.333 77.6667L339.667 78.3333L339.333 77.6667M379.333 77.6667L379.667 78.3333L379.333 77.6667M518 77L519 78L518 77M670 77L671 78L670 77M278 78L279 79L278 78M517 78L518 79L517 78M543.333 78.6667L543.667 79.3333L543.333 78.6667M120 79L121 80L120 79M268 79L269 80L268 79M516 79L517 80L516 79M679 79L680 80L679 79M118 80L119 81L118 80M277 80L278 81L277 80M515 80L516 81L515 80M121 81L122 82L121 81M380 81L381 82L380 81M387 81L388 82L387 81M505 81L506 82L505 81M514 81L515 82L514 81M266 82L267 83L266 82M276 82L277 83L276 82M333 82L334 83L333 82M340.333 82.6667L340.667 83.3333L340.333 82.6667M371.667 82.3333L372.333 82.6667L371.667 82.3333M513 82L514 83L513 82M366.667 83.3333L367.333 83.6667L366.667 83.3333M512 83L513 84L512 83M543 83L543 86L544 86L543 83M676 83L677 84L676 83M123 84L124 85L123 84M265 84L266 85L265 84M363 84L364 85L363 84M511 84L512 85L511 84M549 84L549 87L550 87L549 84M274 85L275 86L274 85M360 85L361 86L360 85M124 86L125 87L124 86M357 86L358 87L357 86M501 86L502 87L501 86M122 87L123 88L122 87M273 87L274 88L273 87M334 87L335 88L334 87M341 87L342 88L341 87M355 87L356 88L355 87M125 88L126 89L125 88M352 88L353 89L352 88M362 170L385 162.001L393.972 158.272L394.039 142L383 88C373.926 88 349.61 89.8124 345.643 100.213C343.689 105.335 348.095 114.885 349.373 120C353.536 136.652 358.53 153.187 362 170M389 88L390 89L389 88M508 88L509 89L508 88M542.333 88.6667L542.667 89.3333L542.333 88.6667M262 89L263 90L262 89M272 89L273 90L272 89M350 89L351 90L350 89M499 89L500 90L499 89M507 89L508 90L507 89M348 90L349 91L348 90M548 90L549 91L548 90M127 91L128 92L127 91M261 91L262 92L261 91M335 91L336 92L335 91M342 91L343 92L342 91M541.333 91.6667L541.667 92.3333L541.333 91.6667M270 92L271 93L270 92M497 92L498 93L497 92M505 92L506 93L505 92M128 93L129 94L128 93M343 93L344 94L343 93z"/>
<path style="fill:#3e175d; stroke:none;" d="M373 93L373 95L382 95L382 93L373 93z"/>
<path style="fill:#7b3b83; stroke:none;" d="M126 94L127 95L126 94M259 94L260 95L259 94M269 94L270 95L269 94M540 94L541 95L540 94M547 94L548 95L547 94M129 95L130 96L129 95M336 95L337 96L336 95z"/>
<path style="fill:#3e175d; stroke:none;" d="M360 99L369 96C365.424 94.7319 362.124 95.8994 360 99z"/>
<path style="fill:#7b3b83; stroke:none;" d="M391 95L392 96L391 95M503 95L504 96L503 95M130 96L131 97L130 96M258 96L259 97L258 96M267 97L268 98L267 97M502 97L503 98L502 97M539 97L540 98L539 97M546 97L547 98L546 97M131 98L132 99L131 98M417.667 98.3333L418.333 98.6667L417.667 98.3333M424.667 98.3333L425.333 98.6667L424.667 98.3333M501 98L502 99L501 98M129 99L130 100L129 99M266 99L267 100L266 99z"/>
<path style="fill:#3e175d; stroke:none;" d="M348 105L356 100C352.043 99.9728 349.32 101.137 348 105z"/>
<path style="fill:#7b3b83; stroke:none;" d="M428 99L429 100L428 99M502 99L503 100L502 99M538 99L539 100L538 99M132 100L133 101L132 100M492 100L493 101L492 100M505.667 100.333L506.333 100.667L505.667 100.333M546 100L547 101L546 100M255 101L256 102L255 101M508 101L509 102L508 101M264 102L265 103L264 102M393 102L394 103L393 102M511 102L512 103L511 102M537 102L538 103L537 102M547 102L548 103L547 102M134 103L135 104L134 103M254 103L255 104L254 103M338 103L339 104L338 103M405 103L406 104L405 103M435 103L436 104L435 103M457 103L458 104L457 103M466 103L467 104L466 103M513.667 103.333L514.333 103.667L513.667 103.333M544.667 103.333L545.333 103.667L544.667 103.333M263 104L264 105L263 104M436 104L437 105L436 104M453 104L454 105L453 104M470 104L471 105L470 104M490 104L491 105L490 104M516 104L517 105L516 104M536 104L537 105L536 104M135 105L136 106L135 105M438 136C438.014 130.768 439.634 125.093 438.211 120C433.107 101.731 409.66 100.326 402.482 118C401.057 121.51 397.612 133.301 401.792 136.022C404.624 137.865 410.881 135.308 414 134.87C422.297 133.703 429.866 133.896 438 136M448 191C441.037 199.316 436.792 207.233 425 209C430.533 216.856 437.254 222.93 441.127 232C441.883 233.768 444.832 243.937 439.255 241.079C435.777 239.297 434.613 232.249 432.877 229C429.001 221.751 423.367 215.597 416 211.821C406.676 207.042 399.814 212.597 391 215.936C388.628 216.834 382.789 219.699 380.921 216.607C378.299 212.266 389.54 209.8 392 209C389.615 198.936 381.235 178.907 370 176.071C365.661 174.976 360.4 179.132 357 181.345C346.236 188.351 336.635 199.267 337.376 213C340.979 279.786 440.935 286.207 480.985 251.561C497.927 236.905 504.017 213.545 504.961 192C505.315 183.909 502.259 174.415 504.136 166.576C506.731 155.736 516.917 143.749 522.424 134C525.509 128.54 529.885 122.783 524.771 117.174C520.652 112.656 504.027 101.814 497.637 106.042C492.952 109.143 487.8 121.742 485.966 127C480.102 143.812 487.219 164.561 481.957 182C477.066 198.206 459.343 205.205 448 191M518 105L519 106L518 105M543 105L544 106L543 105M549 105L550 106L549 105M252 106L253 107L252 106M262 106L263 107L262 106M473 106L474 107L473 106M489 106L490 107L489 106M134 107L135 108L134 107M339 107L340 108L339 107M448 107L449 108L448 107M521 107L522 108L521 107M535 107L536 108L535 107M550 107L551 108L550 107M135 108L136 109L135 108M137 108L138 109L137 108z"/>
<path style="fill:#3e175d; stroke:none;" d="M497 108C497.806 111.76 501.536 111.636 505 112L497 108z"/>
<path style="fill:#7b3b83; stroke:none;" d="M260 109L261 110L260 109M395 109L396 110L395 109M399 109L400 110L399 109M440 109L441 110L440 109M524 109L525 110L524 109M534 109L535 110L534 109M136 110L137 111L136 110M445 135C456.741 132.108 467.232 133.505 479 135L478 131L473 129L478 130C477.892 117.101 464.931 102.431 452.043 113.279C445.359 118.905 445.001 126.936 445 135M525 110L526 111L525 110M541 110L542 111L541 110M552 110L553 111L552 110M137 111L138 112L137 111M139 111L140 112L139 111M259 111L260 112L259 111M340 111L341 112L340 111M533 111L534 112L533 111M396.667 112.333L397.333 112.667L396.667 112.333M442.667 112.333L443.333 112.667L442.667 112.333M479 112L480 113L479 112z"/>
<path style="fill:#3e175d; stroke:none;" d="M510 112C511.32 115.863 514.043 117.027 518 117L510 112z"/>
<path style="fill:#7b3b83; stroke:none;" d="M540 112L541 113L540 112M553 112L554 113L553 112M140 113L141 114L140 113M248 113L249 114L248 113M532 113L533 114L532 113M550 113L551 114L550 113M141 114L142 115L141 114M257 114L258 115L257 114M341 114L342 115L341 114M554 114L555 115L554 114M140 115L141 116L140 115M481 115L482 116L481 115M484 115L485 116L484 115M531 115L532 116L531 115M551 115L552 116L551 115M256 116L257 117L256 116M482 116L482 118L484 116L482 116M555 116L556 117L555 116M143 117L144 118L143 117M245 118L246 119L245 118M255 118L256 119L255 118M556 118L557 119L556 118z"/>
<path style="fill:#3e175d; stroke:none;" d="M144 119L145 120L144 119z"/>
<path style="fill:#7b3b83; stroke:none;" d="M342 119L343 120L342 119M144 120L148 124L144 120z"/>
<path style="fill:#3e175d; stroke:none;" d="M521 120L525 126L521 120z"/>
<path style="fill:#7b3b83; stroke:none;" d="M553 120L554 121L553 120M253 121L254 122L253 121M557 121L558 122L557 121M242 123L243 124L242 123M252 123L253 124L252 123M554 123L555 124L554 123M558 123L559 124L558 123M148 124L149 125L148 124M250 126L251 127L250 126M344.333 126.667L344.667 127.333L344.333 126.667M555 126L556 127L555 126M559 126L560 127L559 126z"/>
<path style="fill:#3e175d; stroke:none;" d="M415 129L415 130C418.644 130 423.096 131.217 424 127L415 129z"/>
<path style="fill:#7b3b83; stroke:none;" d="M533 127L534 128L533 127M239 128L240 129L239 128M249 128L250 129L249 128z"/>
<path style="fill:#3e175d; stroke:none;" d="M429 128L429 130L435 130L435 128L429 128M446 132L455 130C451.645 127.837 448.145 128.653 446 132M459 128L459 130L468 130L468 128L459 128z"/>
<path style="fill:#7b3b83; stroke:none;" d="M560 128L561 129L560 128z"/>
<path style="fill:#3e175d; stroke:none;" d="M402 133L411 129L402 133z"/>
<path style="fill:#7b3b83; stroke:none;" d="M556 129L557 130L556 129M238 130L239 131L238 130M247 131L248 132L247 131M561 131L562 132L561 131M530 132L531 133L530 132M236 133L237 134L236 133M246 133L247 134L246 133M346 134L347 135L346 134M529 134L530 135L529 134M562.333 134.667L562.667 135.333L562.333 134.667M244 136L245 137L244 136M558.333 136.667L558.667 137.333L558.333 136.667M243 138L244 139L243 138M563 138L564 139L563 138M450 139L450 140L453 140L450 139z"/>
<path style="fill:#d6cfcc; stroke:none;" d="M478 141C471.084 139.659 451.361 135.035 446.029 141.742C443.832 144.504 445.817 149.831 445.961 153C446.432 163.375 447.196 182.054 455.225 189.721C463.812 197.922 474.06 187.681 475.985 179C477.171 173.647 476.719 168.411 477.09 163C477.595 155.618 478 148.426 478 141z"/>
<path style="fill:#7b3b83; stroke:none;" d="M470.667 139.333L471.333 139.667L470.667 139.333M232 140L233 141L232 140M414.667 140.333L415.333 140.667L414.667 140.333z"/>
<path style="fill:#d6cfcc; stroke:none;" d="M402 157C417.999 157 436.548 165.444 430.557 185C428.437 191.92 423.223 196.422 419 202C445.212 201.983 441.562 179.029 439.285 160C438.742 155.456 440.197 145.254 436.397 141.988C431.178 137.505 406.124 138.755 402.042 144.564C400.051 147.398 401.972 153.651 402 157z"/>
<path style="fill:#7b3b83; stroke:none;" d="M432.667 140.333L433.333 140.667L432.667 140.333M445.667 140.333L446.333 140.667L445.667 140.333M475 140L476 141L475 140M241 141L242 142L241 141M409 141L410 142L409 141M437 141L438 142L437 141M478 141L478 147L479 147L478 141M348.333 142.667L348.667 143.333L348.333 142.667M404.667 142.333L405.333 142.667L404.667 142.333M438 142L438 150L439 150L438 142M564 142L565 143L564 142M240 143L241 144L240 143M401 143L402 144L401 143M524 143L525 144L524 143M229 145L230 146L229 145M523 145L524 146L523 145M238 146L239 147L238 146M349 146L350 147L349 146M560.333 146.667L560.667 147.333L560.333 146.667M565 146L566 147L565 146M522 147L523 148L522 147M237 148L238 149L237 148M445 148L445 154L446 154L445 148M401 149L401 154L402 154L401 149M226 150L227 151L226 150M236 150L237 151L236 150M350 150L351 151L350 150M520 150L521 151L520 150M566.333 151.667L566.667 152.333L566.333 151.667M519 152L520 153L519 152M224 153L225 154L224 153M234 153L235 154L234 153M561 153L562 154L561 153M351 154L352 155L351 154M223 155L224 156L223 155M233 155L234 156L233 155M402 157L402 158L414 158L402 157M516 157L517 158L516 157M567 157L567 160L568 160L567 157M231 158L232 159L231 158M352 158L353 159L352 158M417 158L418 159L417 158M439 158L439 162L440 162L439 158M420 159L421 160L420 159M477 159L477 167L478 167L477 159M220 160L221 161L220 160M230 160L231 161L230 160M422 160L423 161L422 160M514 160L515 161L514 160M423 161L424 162L423 161M446 161L446 164L447 164L446 161M219 162L220 163L219 162M353 162L354 163L353 162M513 162L514 163L513 162M228 163L229 164L228 163M402 164L402 165L405 165L402 164z"/>
<path style="fill:#d6cfcc; stroke:none;" d="M376 172C383.944 183.278 393.658 191.928 397 206C409.521 202.393 440.793 176.707 416.985 165.653C404.946 160.063 387.533 168.247 376 172z"/>
<path style="fill:#7b3b83; stroke:none;" d="M413.667 164.333L414.333 164.667L413.667 164.333M426 164L427 165L426 164M217 165L218 166L217 165M227 165L228 166L227 165M396.667 165.333L397.333 165.667L396.667 165.333M417 165L418 166L417 165M511 165L512 166L511 165M562 165L562 181L563 181L562 165M354 166L355 167L354 166M392.667 166.333L393.333 166.667L392.667 166.333M440 166L440 169L441 169L440 166M389 167L390 168L389 167M420 167L421 168L420 167M428 167L429 168L428 167M447 167L447 170L448 170L447 167M510 167L511 168L510 167M568 167L568 175L569 175L568 167M225 168L226 169L225 168M385.667 168.333L386.333 168.667L385.667 168.333M383 169L384 170L383 169M429 169L430 170L429 169M214 170L215 171L214 170M224 170L225 171L224 170M380 170L381 171L380 170M422 170L423 171L422 170M377 171L378 172L377 171M510 171L511 172L510 171M669.333 171.667L669.667 172.333L669.333 171.667M213 172L214 173L213 172M423 172L424 173L423 172M430 172L431 173L430 172M448.333 172.667L448.667 173.333L448.333 172.667M222 173L223 174L222 173M355 174L356 175L355 174M441 174L441 180L442 180L441 174M221 175L222 176L221 175M424 175L425 176L424 175M431 175L431 182L432 182L431 175M668 175L669 176L668 175M352 176L353 177L352 176M449.333 176.667L449.667 177.333L449.333 176.667M476 176L476 179L477 179L476 176M667 177L668 178L667 177M675.333 177.667L675.667 178.333L675.333 177.667M219 178L220 179L219 178M349 178L350 179L349 178z"/>
<path style="fill:#3e175d; stroke:none;" d="M367 178L373 186L367 178z"/>
<path style="fill:#7b3b83; stroke:none;" d="M348 179L349 180L348 179M208 180L209 181L208 180M218 180L219 181L218 180M450 180L451 181L450 180M384 181L385 182L384 181M424.333 181.667L424.667 182.333L424.333 181.667M475 181L476 182L475 181M664 181L665 182L664 181M674 181L675 182L674 181M207 182L208 183L207 182M385 182L386 183L385 182M216 183L217 184L216 183M451 183L452 184L451 183M568 183L568 191L569 191L568 183M661 183L662 184L661 183M673 183L674 184L673 183M386 184L387 185L386 184M441 184L441 187L442 187L441 184M474 184L475 185L474 184M511 184L511 194L512 194L511 184M616 184L617 185L616 184M659 184L660 185L659 184M215 185L216 186L215 185M387 185L388 186L387 185M423 185L424 186L423 185M430 185L431 186L430 185M615 185L616 186L615 185M618 185L619 186L618 185M657 185L658 186L657 185M452 186L453 187L452 186M616 186L617 187L616 186M621.667 186.333L622.333 186.667L621.667 186.333M654 186L655 187L654 186M671 186L672 187L671 186M388 187L389 188L388 187M422 187L423 188L422 187M472 187L473 188L472 187M617 187L618 188L617 187M625 187L625 188L628 188L625 187M649.667 187.333L650.333 187.667L649.667 187.333M670 187L671 188L670 187M213 188L214 189L213 188M389 188L390 189L389 188M429 188L430 189L429 188M471 188L472 189L471 188M634 188L634 189L643 189L634 188M338 189L339 190L338 189z"/>
<path style="fill:#3e175d; stroke:none;" d="M376 189L381 197L376 189z"/>
<path style="fill:#7b3b83; stroke:none;" d="M440 189L441 190L440 189M454 189L455 190L454 189M470 189L471 190L470 189M620 189L621 190L620 189M667 189L668 190L667 189M212 190L213 191L212 190M390 190L391 191L390 190M420 190L421 191L420 190M428 190L429 191L428 190M455 190L456 191L455 190M622 190L623 191L622 190M419 191L420 192L419 191M467 191L468 192L467 191M561 191L562 192L561 191M624 191L625 192L624 191M663 191L664 192L663 191M211 192L212 193L211 192M336 192L337 193L336 192M391 192L392 193L391 192M439 192L440 193L439 192M459 192L460 193L459 192M464.667 192.333L465.333 192.667L464.667 192.333M627 192L628 193L627 192M660 192L661 193L660 192M417 193L418 194L417 193M426 193L427 194L426 193M631 193L631 194L634 194L631 193M656.667 193.333L657.333 193.667L656.667 193.333M201 194L202 195L201 194M210 194L211 195L210 194M392 194L393 195L392 194M416 194L417 195L416 194M640 194L640 195L650 195L640 194M415 195L416 196L415 195M437 195L438 196L437 195M200 196L201 197L200 196M209 196L210 197L209 196M393 196L394 197L393 196M414 196L415 197L414 196M436 196L437 197L436 196M435 197L436 198L435 197M560 197L561 198L560 197M567 197L567 200L568 200L567 197M208 198L209 199L208 198M333 198L334 199L333 198M394 198L395 199L394 198M411 198L412 199L411 198M422 198L423 199L422 198M434 198L435 199L434 198M199 199L200 200L199 199M207 200L208 201L207 200z"/>
<path style="fill:#3e175d; stroke:none;" d="M383 200L386 209L383 200z"/>
<path style="fill:#7b3b83; stroke:none;" d="M395 200L396 201L395 200M408 200L409 201L408 200M431 200L432 201L431 200M332 201L333 202L332 201M428 201L429 202L428 201M405 202L406 203L405 202M421 202L421 203L426 203L421 202M559 202L560 203L559 202M206 203L207 204L206 203M396 203L397 204L396 203M403 203L404 204L403 203M510 203L511 204L510 203M197 204L198 205L197 204M401 204L402 205L401 204M566.333 204.667L566.667 205.333L566.333 204.667M205 205L206 206L205 205M399 205L400 206L399 205M558.333 206.667L558.667 207.333L558.333 206.667M196 208L197 209L196 208M204 208L205 209L204 208M565.333 209.667L565.667 210.333L565.333 209.667M509.333 210.667L509.667 211.333L509.333 210.667M203 211L204 212L203 211M564.333 213.667L564.667 214.333L564.333 213.667M556 214L557 215L556 214M202 215L203 216L202 215M194 217L195 218L194 217M555 217L556 218L555 217M563 217L564 218L563 217M201 219L202 220L201 219M562.333 220.667L562.667 221.333L562.333 220.667z"/>
<path style="fill:#fccb0d; stroke:none;" d="M630 220.464C574.261 230.316 590.799 315.383 646 304.905C699.625 294.726 683.351 211.033 630 220.464z"/>
<path style="fill:#7b3b83; stroke:none;" d="M506 222L507 223L506 222M200.333 224.667L200.667 225.333L200.333 224.667M561 224L562 225L561 224M505 225L506 226L505 225M552 225L553 226L552 225M193.333 226.667L193.667 227.333L193.333 226.667M560 226L561 227L560 226M551 227L552 228L551 227M559 229L560 230L559 229M503 230L504 231L503 230M558 231L559 232L558 231M199 232L199 285L200 285L200 249L199 232M502 232L503 233L502 232M548 233L549 234L548 233M557 234L558 235L557 234M500 236L501 237L500 236M556 236L557 237L556 236M546 237L547 238L546 237M338 238L339 239L338 238M499 238L500 239L499 238M555 238L556 239L555 238M672 238L673 239L672 238M545 239L546 240L545 239z"/>
<path style="fill:#3e175d; stroke:none;" d="M673 239L674 240L673 239z"/>
<path style="fill:#7b3b83; stroke:none;" d="M339 240L340 241L339 240M554 240L555 241L554 240z"/>
<path style="fill:#3e175d; stroke:none;" d="M674 240C678.069 249.787 680.99 258.172 679.826 269C676.236 302.411 640.987 310.805 615 300C647.514 342.102 715.84 274.085 674 240z"/>
<path style="fill:#7b3b83; stroke:none;" d="M674 241L675 242L674 241M543 242L544 243L543 242M553 242L554 243L553 242M341 243L342 244L341 243M496 243L497 244L496 243M675 243L676 244L675 243M677 243L678 244L677 243M678 244L679 245L678 244M541 245L542 246L541 245M551 245L552 246L551 245M676 245L677 246L676 245M343 246L344 247L343 246M550 247L551 248L550 247M677.333 247.667L677.667 248.333L677.333 247.667M680 247L681 248L680 247M539 248L540 249L539 248M681 249L682 250L681 249M346 250L347 251L346 250M548 250L549 251L548 250M678.333 250.667L678.667 251.333L678.333 250.667M347 251L348 252L347 251M537 251L538 252L537 251M682 251L683 252L682 251M348 252L349 253L348 252M536 252L537 253L536 252M546 253L547 254L546 253M683 253L684 254L683 253M679.333 254.667L679.667 255.333L679.333 254.667M534 255L535 256L534 255M352 256L353 257L352 256M533 256L534 257L533 256M544 256L545 257L544 256M684.333 256.667L684.667 257.333L684.333 256.667M353 257L354 258L353 257M543 257L544 258L543 257M481 259L482 260L481 259M541 260L542 261L541 260M685 260L685 263L686 263L685 260M540 261L541 262L540 261M477 262L478 263L477 262M361 263L362 264L361 263M474 264L475 265L474 264M526 264L527 265L526 264M364 265L365 266L364 265M525 265L526 266L525 265M366 266L367 267L366 266M524 266L525 267L524 266M536 266L537 267L536 266M469 267L470 268L469 267M523 267L524 268L523 267M535 267L536 268L535 267M370 268L371 269L370 268M467 268L468 269L467 268M522 268L523 269L522 268M534 268L535 269L534 268M372 269L373 270L372 269M465 269L466 270L465 269M533 269L534 270L533 269M679 269L679 272L680 272L679 269M532 270L533 271L532 270M377 271L378 272L377 271M531 271L532 272L531 271M322 272L323 273L322 272M458 272L459 273L458 272M530 272L531 273L530 272M382 273L383 274L382 273M529 273L530 274L529 273M324 274L328 278L324 274M386 274L387 275L386 274M452 274L453 275L452 274M515 274L516 275L515 274M528 274L529 275L528 274M678.333 274.667L678.667 275.333L678.333 274.667M389 275L390 276L389 275M449 275L450 276L449 275M514 275L515 276L514 275M527 275L528 276L527 275M394 276L395 277L394 276M526 276L527 277L526 276M685.333 276.667L685.667 277.333L685.333 276.667M399.667 277.333L400.333 277.667L399.667 277.333M440 277L441 278L440 277M525 277L526 278L525 277M677.333 277.667L677.667 278.333L677.333 277.667M330 278L331 279L330 278M407.667 278.333L408.333 278.667L407.667 278.333M510 278L511 279L510 278M524 278L525 279L524 278M331 279L332 280L331 279M676 280L677 281L676 280M684.333 280.667L684.667 281.333L684.333 280.667M332 281L333 282L332 281M333 282L334 283L333 282M335 282L336 283L335 282M519 282L520 283L519 282M675 282L676 283L675 282M518 283L519 284L518 283M192.333 284.667L192.667 285.333L192.333 284.667M674 284L675 285L674 284M683 284L684 285L683 284M337 285L338 286L337 285M500 285L501 286L500 285M515 285L516 286L515 285M338 286L339 287L338 286M514 286L515 287L514 286M682 286L683 287L682 286M343 287L344 288L343 287M672 287L673 288L672 287M341 288L342 289L341 288M345 288L346 289L345 288M495 288L496 289L495 288M511 288L512 289L511 288M671 288L672 289L671 288M681 288L682 289L681 288M493 289L494 290L493 289M344 290L345 291L344 290M491 290L492 291L491 290M508 290L509 291L508 290M680 290L681 291L680 290M198 291L198 294L199 294L198 291M489 291L490 292L489 291M190 292L191 293L190 292M347 292L348 293L347 292M353 292L354 293L353 292M487 292L488 293L487 292M505 292L506 293L505 292M668 292L669 293L668 292M349 293L350 294L349 293M355 293L356 294L355 293M485 293L486 294L485 293M503 293L504 294L503 293M667 293L668 294L667 293M678 293L679 294L678 293M357 294L358 295L357 294M501 294L502 295L501 294M677 294L678 295L677 294M480 295L481 296L480 295M197 296L198 297L197 296M354 296L355 297L354 296M362 296L363 297L362 296M498 296L499 297L498 296M356 297L357 298L356 297M365 297L366 298L365 297M475 297L476 298L475 297M496 297L497 298L496 297M611 297L612 298L611 297M662 297L663 298L662 297M185 298L186 299L185 298M368 298L369 299L368 298M472 298L473 299L472 298M612 298L615 301L612 298M661 298L662 299L661 298M674 298L675 299L674 298M99 299L99 301L101 301L99 299M196 299L197 300L196 299M361 299L362 300L361 299M371 299L372 300L371 299M469 299L470 300L469 299M491 299L492 300L491 299M673 299L674 300L673 299M180 300L181 301L180 300M363 300L364 301L363 300M375 300L376 301L375 300M465 300L466 301L465 300M489 300L490 301L489 300M616 300L617 301L616 300M658 300L659 301L658 300M672 300L673 301L672 300M365 301L366 302L365 301M487 301L488 302L487 301M615 301L616 302L615 301M618 301L619 302L618 301M656 301L657 302L656 301M194 302L195 303L194 302M368 302L369 303L368 302M383 302L384 303L383 302M457 302L458 303L457 302M484 302L485 303L484 302M620 302L621 303L620 302M654 302L655 303L654 302M193 303L194 304L193 303M371 303L372 304L371 303M388 303L389 304L388 303M452 303L453 304L452 303M481 303L482 304L481 303M622 303L623 304L622 303M651 303L652 304L651 303M106 304L107 305L106 304M374 304L375 305L374 304M395 304L396 305L395 304M444.667 304.333L445.333 304.667L444.667 304.333M478.667 304.333L479.333 304.667L478.667 304.333M619 304L620 305L619 304M625.667 304.333L626.333 304.667L625.667 304.333M648 304L649 305L648 304M667 304L668 305L667 304M105 305L106 306L105 305M190 305L191 306L190 305M377 305L378 306L377 305M403.667 305.333L404.333 305.667L403.667 305.333M437 305L438 306L437 305M475 305L476 306L475 305M629 305L629 306L632 306L629 305M642 305L642 306L645 306L642 305M187 306L188 307L187 306M380 306L381 307L380 306M472 306L473 307L472 306M622 306L623 307L622 306M664 306L665 307L664 306M384.667 307.333L385.333 307.667L384.667 307.333M468 307L469 308L468 307M624 307L625 308L624 307M662 307L663 308L662 307M388.667 308.333L389.333 308.667L388.667 308.333M464 308L465 309L464 308M626 308L627 309L626 308M660 308L661 309L660 308M393.667 309.333L394.333 309.667L393.667 309.333M458.667 309.333L459.333 309.667L458.667 309.333M628 309L629 310L628 309M657 309L658 310L657 309M399 310L399 311L402 311L399 310M452.667 310.333L453.333 310.667L452.667 310.333M631.667 310.333L632.333 310.667L631.667 310.333M654.667 310.333L655.333 310.667L654.667 310.333M407 311L407 312L411 312L407 311M443 311L443 312L447 312L443 311M636.667 311.333L637.333 311.667L636.667 311.333M649.667 311.333L650.333 311.667L649.667 311.333M425 312L425 313L429 313L425 312z"/>
</svg>
